<svg width="406" height="52" viewBox="0 0 406 52" fill="none" xmlns="http://www.w3.org/2000/svg">
<path d="M66.7423 23.7996C66.2052 22.7653 65.4593 21.9838 64.5045 21.4569C63.5497 20.93 62.4457 20.6657 61.1925 20.6657C59.82 20.6657 58.5966 20.9745 57.5225 21.5909C56.4483 22.2079 55.608 23.0833 55.0015 24.2174C54.3944 25.3516 54.0912 26.6649 54.0912 28.1572C54.0912 29.6495 54.3944 30.9677 55.0015 32.1122C55.608 33.2566 56.4483 34.1368 57.5225 34.7533C58.5966 35.3703 59.82 35.6786 61.1925 35.6786C63.0424 35.6786 64.5441 35.1614 65.698 34.1265C66.8513 33.0922 67.5577 31.6894 67.8165 29.9182H60.0289V27.2021H71.4566V29.8585C71.2375 31.4702 70.6662 32.9527 69.7412 34.3056C68.8163 35.659 67.6125 36.7384 66.1309 37.5443C64.6488 38.3501 63.0028 38.7528 61.1931 38.7528C59.2433 38.7528 57.4634 38.3002 55.8521 37.395C54.2409 36.4899 52.9628 35.2309 52.0183 33.6191C51.0732 32.0074 50.6013 30.1868 50.6013 28.1572C50.6013 26.1276 51.0738 24.307 52.0183 22.6953C52.9628 21.0835 54.2458 19.8251 55.8673 18.9194C57.4883 18.0142 59.2639 17.5611 61.1936 17.5611C63.4016 17.5611 65.366 18.1037 67.0862 19.188C68.8065 20.2728 70.0548 21.8096 70.8306 23.799L66.7423 23.7996Z" fill="black"/>
<path d="M84.0779 38.5737L79.3039 30.2763H76.708V38.5737H73.3066V17.8302H80.4676C82.0587 17.8302 83.4063 18.1092 84.5108 18.6659C85.6148 19.2233 86.44 19.9694 86.9874 20.9044C87.5342 21.84 87.8076 22.8846 87.8076 24.0384C87.8076 25.3918 87.4149 26.6198 86.6293 27.7241C85.8432 28.8285 84.6351 29.5795 83.0043 29.9773L88.1364 38.5732L84.0779 38.5737ZM76.708 27.5603H80.4676C81.7403 27.5603 82.7005 27.2423 83.3472 26.6052C83.9933 25.9686 84.3172 25.1128 84.3172 24.0384C84.3172 22.9639 83.9987 22.1233 83.3624 21.516C82.7255 20.9093 81.7609 20.606 80.4681 20.606H76.7086L76.708 27.5603Z" fill="black"/>
<path d="M103.173 34.3355H94.4907L92.9988 38.5737H89.4482L96.8777 17.8004H100.816L108.246 38.5737H104.665L103.173 34.3355ZM102.219 31.5597L98.847 21.9192L95.4455 31.5597H102.219Z" fill="black"/>
<path d="M127.849 17.8302L120.062 38.5737H116.123L108.305 17.8302H111.946L118.092 35.0816L124.269 17.8302H127.849Z" fill="black"/>
<path d="M132.593 17.8302V38.5737H129.191V17.8302H132.593Z" fill="black"/>
<path d="M148.973 17.8302V20.606H143.453V38.5737H140.052V20.606H134.502V17.8302H148.973Z" fill="black"/>
<path d="M163.414 34.3355H154.732L153.24 38.5737H149.689L157.119 17.8004H161.057L168.487 38.5737H164.906L163.414 34.3355ZM162.46 31.5597L159.088 21.9192L155.686 31.5597H162.46Z" fill="black"/>
<path d="M182.794 19.0985C184.454 19.9445 185.737 21.1579 186.643 22.7397C187.548 24.3216 188 26.1672 188 28.2766C188 30.3859 187.548 32.2163 186.643 33.7684C185.737 35.3204 184.454 36.5094 182.794 37.3348C181.132 38.1607 179.198 38.5737 176.99 38.5737H170.217V17.8302H176.99C179.198 17.8302 181.132 18.2524 182.794 19.0985ZM182.57 33.8281C183.862 32.5148 184.509 30.6643 184.509 28.2766C184.509 25.8888 183.862 23.989 182.57 22.6356C181.276 21.2827 179.417 20.606 176.99 20.606H173.618V35.798H176.99C179.417 35.798 181.276 35.1413 182.57 33.8281Z" fill="black"/>
<path d="M6.14979 19.71C6.14979 20.5078 6.79917 21.1573 7.59664 21.1573C8.39466 21.1573 9.0435 20.5078 9.0435 19.7095C9.0435 19.3231 8.89322 18.9601 8.6198 18.6866C8.34638 18.4131 7.98291 18.2627 7.5961 18.2627C6.79863 18.2627 6.14979 18.9118 6.14979 19.71Z" fill="url(#paint0_linear_279_17602)"/>
<path d="M10.9081 29.8628C10.9081 30.2497 11.0589 30.6133 11.3318 30.8868C11.6052 31.1603 11.9681 31.3106 12.3549 31.3106C13.1524 31.3106 13.8018 30.6616 13.8018 29.8633C13.8018 29.0651 13.1529 28.416 12.3549 28.4155C11.5574 28.4155 10.9086 29.0651 10.9081 29.8628Z" fill="url(#paint1_linear_279_17602)"/>
<path d="M43.041 29.9581L36.6308 36.3702C36.9698 36.9683 37.1532 37.6455 37.1527 38.351C37.1527 39.4282 36.7338 40.4413 35.9722 41.2032C35.2105 41.9651 34.1982 42.3846 33.1219 42.3846C30.8982 42.3846 29.09 40.5754 29.09 38.3515C29.09 36.1277 30.8987 34.319 33.1213 34.319C33.6747 34.319 34.2101 34.4313 34.7038 34.6424L43.9442 25.3986C44.4482 24.8934 44.4482 24.0761 43.9437 23.5714C43.4397 23.0673 42.6232 23.0667 42.1182 23.5698L35.7834 29.9065C35.5311 30.1589 35.2002 30.2853 34.8693 30.2853C34.5383 30.2853 34.208 30.1589 33.9557 29.9065C33.4512 29.4013 33.4512 28.583 33.9557 28.0783L43.9144 18.116C44.4195 17.6113 44.4195 16.793 43.9144 16.2883C43.4099 15.7831 42.5912 15.7831 42.0867 16.2883L31.9305 26.4476C32.2029 26.9967 32.3504 27.604 32.3499 28.2346C32.3499 29.3118 31.9311 30.3244 31.1694 31.0863C30.4077 31.8482 29.3949 32.2677 28.3186 32.2677C26.0954 32.2677 24.2867 30.4584 24.2867 28.234C24.2867 26.0096 26.0954 24.2015 28.318 24.2015C28.9473 24.2015 29.5533 24.3491 30.1012 24.6199L45.6591 9.05725C46.1614 8.55257 46.1609 7.73586 45.6574 7.23226C45.1524 6.72704 44.3343 6.72704 43.8292 7.23226L30.9188 20.1467C30.6671 20.399 30.3356 20.5254 30.0047 20.5249C29.6743 20.5249 29.3434 20.399 29.0911 20.1467C28.586 19.642 28.586 18.8231 29.0911 18.3184L37.1668 10.2403C37.6713 9.73559 37.6713 8.91724 37.1668 8.41202C36.6628 7.90788 35.8458 7.90734 35.3412 8.40985L15.8671 27.8905C16.1958 28.4744 16.3857 29.1468 16.3857 29.8631C16.3857 32.0864 14.577 33.8957 12.3544 33.8957C11.2775 33.8957 10.2647 33.4762 9.50354 32.7143C8.74186 31.9524 8.32251 30.9398 8.32251 29.8626C8.32251 27.6387 10.1318 25.83 12.3544 25.83C12.9186 25.83 13.4557 25.9472 13.9434 26.1578L30.6833 9.4127C31.1884 8.90802 31.1884 8.08968 30.6833 7.58445C30.1793 7.08032 29.3634 7.07977 28.8584 7.58228L18.0599 18.3841C17.8076 18.637 17.4767 18.7629 17.1463 18.7629C16.8154 18.7629 16.4844 18.6364 16.2322 18.3841C15.7277 17.8794 15.7277 17.0611 16.2322 16.5558L30.577 2.20716C31.0821 1.70194 31.0821 0.883598 30.577 0.378917C30.0725 -0.126306 29.2538 -0.126306 28.7488 0.378917L11.2097 17.9244C11.4815 18.4731 11.6285 19.0798 11.6285 19.7098C11.6285 21.9337 9.81981 23.7429 7.59664 23.7429C5.37347 23.7429 3.56532 21.9337 3.56532 19.7098C3.56532 18.6326 3.98467 17.62 4.7458 16.8581C5.50747 16.0962 6.51978 15.6767 7.59719 15.6767C8.22757 15.6767 8.83355 15.8238 9.38202 16.0956L21.884 3.58934C22.3874 3.08466 22.3874 2.26686 21.8829 1.76272C21.3783 1.25804 20.5597 1.25804 20.0552 1.76272L11.5721 10.2484L2.98484 15.2078C1.34323 16.1564 0 18.4834 0 20.3795V37.5386C0 39.4347 1.34323 41.7616 2.98484 42.7097L17.8402 51.2892C19.4818 52.2373 22.1682 52.2373 23.8093 51.2892L38.6646 42.7097C40.3062 41.7616 41.6489 39.4347 41.6489 37.5386V35.006L44.867 31.7869C45.3721 31.2822 45.3721 30.4638 44.867 29.9586C44.363 29.4539 43.546 29.4539 43.041 29.9581Z" fill="url(#paint2_linear_279_17602)"/>
<path d="M26.8723 28.2337C26.8723 29.032 27.5211 29.681 28.3191 29.681C28.7059 29.681 29.0694 29.5307 29.3423 29.2572C29.6157 28.9842 29.766 28.6206 29.766 28.2337C29.766 27.8468 29.6157 27.4832 29.3423 27.2102C29.0688 26.9373 28.7054 26.7864 28.3191 26.7864C27.5216 26.7864 26.8723 27.4355 26.8723 28.2337Z" fill="black"/>
<path d="M31.6745 38.3512C31.6745 39.1495 32.3233 39.799 33.1219 39.799C33.5081 39.799 33.8716 39.6482 34.145 39.3747C34.4179 39.1017 34.5687 38.7381 34.5687 38.3512C34.5687 37.9648 34.4184 37.6012 34.145 37.3277C33.8716 37.0548 33.5081 36.9039 33.1213 36.9039C32.3238 36.9039 31.6745 37.5529 31.6745 38.3512Z" fill="url(#paint3_linear_279_17602)"/>
<path fill-rule="evenodd" clip-rule="evenodd" d="M260.895 46.9555C264.138 45.5748 268.639 43.749 272.627 42.4342C273.387 41.6459 273.796 40.398 274.95 39.6617C276.982 38.2688 281.906 37.3061 285.313 36.9717C284.57 38.2113 276.666 39.4541 277.098 40.4384C277.24 41.0701 282.782 38.4571 286.244 38.3701C284.705 40.3155 277.082 41.1216 277.546 42.0982C277.716 42.9684 283.955 40.1279 286.684 40.036C285.232 42.128 277.529 42.6927 277.988 43.7534C278.25 44.6331 283.989 42.0356 286.701 41.952C285.427 43.0039 283.708 43.4838 281.622 44.1958C280.005 44.7527 278.137 45.7094 276.559 45.5588C275.723 45.4796 274.579 44.6935 273.838 44.5877C273.615 44.5573 273.38 44.5518 273.142 44.554C269.224 45.8572 264.746 47.683 261.562 49.0371C285.332 58.7519 295.823 42.0445 298.323 35.2306C292.434 31.3016 274.486 24.3737 260.895 46.9555Z" fill="#66A03B"/>
<path fill-rule="evenodd" clip-rule="evenodd" d="M238.576 42.5975C237.577 42.8062 236.668 43.2258 235.809 43.3393C232.55 43.7728 227.306 41.003 229.242 37.0054C230.038 35.3606 233.735 35.2831 236.054 36.4186C238.215 37.4771 238.548 39.6971 239.992 40.7578C239.985 40.7655 239.98 40.775 239.973 40.7833C244.945 42.5327 251.384 45.2985 255.537 47.1365C241.932 24.3344 223.905 31.2916 218 35.2311C220.495 42.03 230.947 58.6804 254.61 49.0985C250.261 47.1786 243.471 44.2705 238.576 42.5975Z" fill="#AFC643"/>
<path fill-rule="evenodd" clip-rule="evenodd" d="M257.068 15.9434C258.841 16.2479 261.394 20.2206 261.394 24.4469V33.0367C261.394 35.0353 259.551 36.0943 259.551 37.232C259.551 40.2071 259.417 42.5284 259.417 45.7111C259.417 46.0787 259.423 46.4474 259.431 46.8167C278.196 23.2389 264.52 5.29307 258.318 1.29376e-08C252.123 5.28145 238.506 23.1509 257.068 46.6434V15.9434Z" fill="#7DAF3C"/>
<path d="M322.253 37.4187L319.947 30.9514H311.793L309.516 37.4187H306.485L314.426 15.5931H317.414L325.313 37.4187H322.253ZM319.136 28.3046L316.945 21.8966C316.878 21.6784 316.776 21.3518 316.638 20.9156C316.501 20.4793 316.363 20.0287 316.226 19.5625C316.088 19.0969 315.976 18.71 315.891 18.4027C315.796 18.8091 315.687 19.2376 315.564 19.6888C315.441 20.14 315.32 20.5612 315.201 20.9527C315.082 21.3441 314.985 21.6591 314.909 21.8966L312.689 28.3046H319.136Z" fill="black"/>
<path d="M333.922 20.7374C335.288 20.7374 336.46 21.0424 337.437 21.6519C338.414 22.2614 339.163 23.1218 339.685 24.2312C340.207 25.3412 340.468 26.6499 340.468 28.1563V29.8514H329.823C329.852 31.6058 330.284 32.9511 331.118 33.8878C331.952 34.8245 333.125 35.2929 334.633 35.2929C335.629 35.2929 336.516 35.1938 337.294 34.9956C338.071 34.7974 338.878 34.5051 339.713 34.1187V36.6315C338.926 37.0085 338.136 37.2831 337.344 37.457C336.551 37.6302 335.605 37.7172 334.505 37.7172C332.987 37.7172 331.656 37.3999 330.513 36.7655C329.37 36.1311 328.481 35.1921 327.845 33.9482C327.21 32.7042 326.892 31.1707 326.892 29.3466C326.892 27.5224 327.181 25.9989 327.76 24.715C328.339 23.4318 329.155 22.448 330.208 21.7637C331.261 21.0795 332.499 20.7374 333.922 20.7374ZM333.908 23.0564C332.75 23.0564 331.82 23.4506 331.119 24.2384C330.416 25.0262 330.004 26.1539 329.881 27.621H337.594C337.584 26.7191 337.447 25.9258 337.181 25.2421C336.915 24.5584 336.514 24.023 335.978 23.6366C335.442 23.2502 334.752 23.0564 333.908 23.0564Z" fill="black"/>
<path d="M350.657 37.716C349.214 37.716 347.953 37.4137 346.871 36.8092C345.79 36.2046 344.953 35.2801 344.36 34.0367C343.767 32.7927 343.47 31.2194 343.47 29.316C343.47 27.4127 343.788 25.7109 344.424 24.447C345.059 23.1831 345.939 22.2492 347.064 21.6447C348.188 21.0401 349.476 20.7378 350.927 20.7378C351.781 20.7378 352.58 20.827 353.325 21.0052C354.069 21.1835 354.693 21.4066 355.196 21.674L354.342 24.0972C353.811 23.879 353.239 23.6858 352.628 23.5175C352.016 23.3492 351.434 23.2645 350.884 23.2645C349.879 23.2645 349.046 23.4948 348.387 23.956C347.728 24.4166 347.232 25.0931 346.9 25.9855C346.568 26.8774 346.402 27.978 346.402 29.2861C346.402 30.5943 346.566 31.6279 346.893 32.5048C347.22 33.3823 347.704 34.0489 348.345 34.5045C348.985 34.9607 349.784 35.1882 350.742 35.1882C351.587 35.1882 352.346 35.0891 353.019 34.8909C353.693 34.6927 354.314 34.4403 354.883 34.1325V36.7638C354.333 37.081 353.726 37.319 353.062 37.4774C352.398 37.6357 351.596 37.716 350.657 37.716Z" fill="black"/>
<path d="M372.274 29.1971C372.274 30.5451 372.105 31.747 371.768 32.8022C371.431 33.8579 370.943 34.7498 370.303 35.4783C369.662 36.2069 368.891 36.7622 367.991 37.1436C367.089 37.525 366.07 37.716 364.931 37.716C363.869 37.716 362.894 37.525 362.007 37.1436C361.12 36.7622 360.353 36.2069 359.708 35.4783C359.063 34.7498 358.565 33.8579 358.214 32.8022C357.863 31.7465 357.687 30.5451 357.687 29.1971C357.687 27.4034 357.981 25.8743 358.569 24.6104C359.157 23.3465 360 22.3855 361.095 21.7261C362.191 21.0668 363.498 20.7374 365.016 20.7374C366.534 20.7374 367.724 21.0695 368.815 21.7333C369.906 22.3976 370.755 23.3593 371.362 24.6176C371.969 25.8765 372.274 27.4034 372.274 29.1971ZM360.619 29.1971C360.619 30.456 360.773 31.5389 361.081 32.4457C361.389 33.3525 361.864 34.0489 362.504 34.5344C363.145 35.02 363.972 35.263 364.987 35.263C366.002 35.263 366.804 35.0205 367.449 34.5344C368.094 34.0489 368.568 33.3525 368.872 32.4457C369.175 31.5389 369.327 30.456 369.327 29.1971C369.327 27.9382 369.175 26.878 368.872 25.9856C368.568 25.0937 368.097 24.4095 367.456 23.9339C366.816 23.4584 365.983 23.2203 364.959 23.2203C363.46 23.2203 362.362 23.7435 361.665 24.7887C360.967 25.8344 360.619 27.3037 360.619 29.1971Z" fill="black"/>
<path d="M381.651 37.7158C379.735 37.7158 378.205 37.0072 377.061 35.5899C375.918 34.1727 375.347 32.0717 375.347 29.286C375.347 26.5002 375.927 24.3428 377.09 22.9006C378.252 21.4585 379.796 20.7377 381.722 20.7377C382.528 20.7377 383.235 20.8517 383.842 21.0798C384.449 21.3079 384.973 21.6101 385.414 21.9866C385.855 22.3636 386.223 22.7893 386.518 23.2654H386.688C386.641 22.9582 386.593 22.5275 386.546 21.9722C386.498 21.4175 386.474 20.9314 386.474 20.5151V14.2859H389.335V37.4196H387.072L386.603 35.1448H386.474C386.19 35.6204 385.827 36.0544 385.386 36.4458C384.945 36.8372 384.418 37.1472 383.806 37.3748C383.195 37.6029 382.476 37.7169 381.651 37.7169L381.651 37.7158ZM382.32 35.2771C383.867 35.2771 384.96 34.8115 385.601 33.8798C386.241 32.9481 386.566 31.5657 386.576 29.7316V29.2705C386.576 27.3179 386.269 25.8187 385.658 24.7729C385.046 23.7272 383.923 23.2045 382.292 23.2045C380.964 23.2045 379.963 23.7471 379.29 24.8327C378.616 25.9183 378.279 27.4225 378.279 29.3452C378.279 31.2679 378.616 32.7128 379.29 33.7387C379.963 34.7645 380.973 35.2771 382.32 35.2771Z" fill="black"/>
<path d="M400.222 20.7523C402.158 20.7523 403.604 21.2007 404.563 22.0975C405.521 22.9949 406 24.4094 406 26.3421V37.4182H403.951L403.396 35.0393H403.282C402.846 35.6339 402.39 36.1299 401.916 36.5263C401.441 36.9227 400.894 37.22 400.272 37.4182C399.651 37.6164 398.894 37.7155 398.003 37.7155C397.054 37.7155 396.21 37.5372 395.47 37.1801C394.73 36.823 394.148 36.2855 393.727 35.5669C393.304 34.8483 393.093 33.9343 393.093 32.8237C393.093 31.1585 393.705 29.8946 394.929 29.0326C396.153 28.1706 398.008 27.6995 400.493 27.6204L403.197 27.5013V26.5796C403.197 25.3007 402.924 24.3994 402.379 23.8735C401.833 23.3481 401.072 23.0857 400.095 23.0857C399.288 23.0857 398.515 23.207 397.775 23.45C397.035 23.693 396.323 23.9831 395.64 24.3197L394.73 22.149C395.47 21.7526 396.311 21.4205 397.256 21.1531C398.2 20.8857 399.188 20.7523 400.222 20.7523ZM403.168 29.4644L400.976 29.5685C399.164 29.6377 397.89 29.9527 397.155 30.5124C396.42 31.0727 396.052 31.8533 396.052 32.8542C396.052 33.7267 396.304 34.3655 396.806 34.7719C397.309 35.1783 397.974 35.3814 398.799 35.3814C400.07 35.3814 401.116 35.0072 401.936 34.2587C402.757 33.5102 403.167 32.403 403.167 30.9359L403.168 29.4644Z" fill="black"/>
<defs>
<linearGradient id="paint0_linear_279_17602" x1="2733.94" y1="-298.227" x2="2584.69" y2="866.845" gradientUnits="userSpaceOnUse">
<stop stop-color="#3EA6DE"/>
<stop offset="0.99" stop-color="#273578"/>
</linearGradient>
<linearGradient id="paint1_linear_279_17602" x1="3112.16" y1="-346.594" x2="2962.96" y2="818.285" gradientUnits="userSpaceOnUse">
<stop stop-color="#3EA6DE"/>
<stop offset="0.99" stop-color="#273578"/>
</linearGradient>
<linearGradient id="paint2_linear_279_17602" x1="325.22" y1="12.9026" x2="317.839" y2="77.9832" gradientUnits="userSpaceOnUse">
<stop stop-color="#3EA6DE"/>
<stop offset="0.99" stop-color="#273578"/>
</linearGradient>
<linearGradient id="paint3_linear_279_17602" x1="2250.77" y1="-236.267" x2="2101.57" y2="928.611" gradientUnits="userSpaceOnUse">
<stop stop-color="#3EA6DE"/>
<stop offset="0.99" stop-color="#273578"/>
</linearGradient>
</defs>
</svg>
